<svg width="88" height="88" fill="none" xmlns="http://www.w3.org/2000/svg"><g clip-path="url(#clip0_2404_10657)"><path d="M24 34h15.744m24.148 37.75h15.744m-23.616 0h4.113M16.659 40.232h15.744m-23.616 0H12.9M44.212 55.99v31.516M70.78 26.612v60.896M16.66 63.87v23.638M87.508.345L56.02 32.354 44.212 55.99l-27.552 7.88L.916 87.507h86.593V.345z" stroke="#C5CDE9" stroke-miterlimit="10"/><path d="M29.96 43.192a.534.534 0 0 1 .82 0l2.571 2.966 2.225 2.6a.534.534 0 0 1-.416.88h-2.699a.544.544 0 0 0-.534.544v18.201a.534.534 0 0 1-.534.534h-1.977a.544.544 0 0 1-.544-.534V50.222a.544.544 0 0 0-.534-.544H25.54a.542.542 0 0 1-.415-.89l2.224-2.59 2.61-3.006z" fill="#613FDD"/><rect x="29" y="71" width="3" height="5" rx=".5" fill="#673DE6"/><path d="M58.96 11.192a.534.534 0 0 1 .82 0l2.571 2.966 2.225 2.6a.534.534 0 0 1-.416.88h-2.699a.544.544 0 0 0-.534.544v18.201a.534.534 0 0 1-.534.534h-1.977a.544.544 0 0 1-.544-.534V18.222a.544.544 0 0 0-.534-.544H54.54a.542.542 0 0 1-.416-.89l2.225-2.59 2.61-3.006z" fill="#613FDD"/><rect x="58" y="54" width="3" height="3" rx=".5" fill="#673DE6"/><rect x="58" y="39" width="3" height="13" rx=".5" fill="#673DE6"/></g><defs><clipPath id="clip0_2404_10657"><path fill="#fff" d="M0 0H88V88H0z"/></clipPath></defs></svg>