<svg width="88" height="88" fill="none" xmlns="http://www.w3.org/2000/svg"><path d="M10 71.23h11.857m3.953 0h11.857M10 47.5h17m-17 8h19m-19 8h24M10 79.14h27.667M76.002 7.5H48.435v15.82h27.567V7.5zm-51.4 14.378l-.094-.378H9.5v17h16.503l.026-.472.043-.78a51.456 51.456 0 0 0-1.47-15.37zM56.34 31.23h-7.904v7.91h7.904v-7.91zm3.903 0h16.195m-16.195 7.91h16.195m-8.339 15.82h7.905v-7.91h-7.905v7.91zm-3.903 0H48m16.195-7.91H48" stroke="#C5CDE9" stroke-miterlimit="10"/><path d="M1 86.5V.575C8.192 1.63 14.704 4.473 19.291 10.43c4.713 6.121 7.456 15.61 6.71 30.044-.76 14.686 5.46 23.49 13.877 28.273 8.375 4.759 18.873 5.51 26.702 4.247 6.02-.972 10.578 1.166 13.852 4.245 3.044 2.863 4.97 6.537 5.886 9.261H1zm86-86v65.938c-2.116-3.342-5.6-5.015-9.19-5.728-4.198-.834-8.62-.376-11.421.303-5.364 1.154-13.244 1.486-19.504-1.198-3.12-1.337-5.825-3.417-7.633-6.508-1.809-3.092-2.747-7.241-2.254-12.763C38.89 19.354 30.567 5.63 25.297.5H87z" stroke="#C5CDE9"/><path d="M45 47l5.5-7-5.5-6.5m-26.5 0l-5.5 7 5.5 6.5" stroke="#673DE6" stroke-width="3" stroke-linecap="round"/></svg>