<svg width="88" height="88" fill="none" xmlns="http://www.w3.org/2000/svg"><g clip-path="url(#clip0_2424_10024)"><path d="M87.505.494H.495v87.012h87.01V.494zm-47.46 71.38H8.405m23.73 0h-4.133m-3.777 7.81H8.404m23.73 0h-4.133" stroke="#C5CDE9" stroke-miterlimit="10"/><path d="M79.002 16H51.435v15.82h27.567V16zM59.34 39.73h-7.904v7.91h7.904v-7.91zm3.903 0h16.195m-16.195 7.91h16.195m-8.339 15.82h7.905v-7.91h-7.905v7.91zm-3.903 0H51m16.195-7.91H51m0 15.82h28.438" stroke="#C5CDE9" stroke-miterlimit="10"/><path d="M42.852 20l20.095 11.333C63.967 50 49.976 62.89 42.852 67 25.501 57.133 22.44 39.111 23.077 31.333L42.852 20z" fill="#fff" stroke="#673DE6" stroke-width="3"/><path d="M34 41.97L42.235 50 54 37" stroke="#673DE6" stroke-width="3" stroke-linecap="round"/></g><defs><clipPath id="clip0_2424_10024"><path fill="#fff" d="M0 0H88V88H0z"/></clipPath></defs></svg>